<?xml version="1.0" encoding="UTF-8" standalone="no"?>
<!-- Created with Inkscape (http://www.inkscape.org/) -->

<svg
   width="600"
   height="400"
   viewBox="0 0 158.75 105.83334"
   version="1.1"
   id="svg4567"
   inkscape:version="1.1 (c68e22c387, 2021-05-23)"
   sodipodi:docname="unifor.svg"
   xmlns:inkscape="http://www.inkscape.org/namespaces/inkscape"
   xmlns:sodipodi="http://sodipodi.sourceforge.net/DTD/sodipodi-0.dtd"
   xmlns="http://www.w3.org/2000/svg"
   xmlns:svg="http://www.w3.org/2000/svg">
  <sodipodi:namedview
     id="namedview4569"
     pagecolor="#ffffff"
     bordercolor="#666666"
     borderopacity="1.0"
     inkscape:pageshadow="2"
     inkscape:pageopacity="0.0"
     inkscape:pagecheckerboard="0"
     inkscape:document-units="mm"
     showgrid="false"
     units="px"
     inkscape:zoom="0.67081229"
     inkscape:cx="150.56373"
     inkscape:cy="358.52056"
     inkscape:window-width="1920"
     inkscape:window-height="1023"
     inkscape:window-x="0"
     inkscape:window-y="0"
     inkscape:window-maximized="1"
     inkscape:current-layer="svg4567" />
  <defs
     id="defs4564" />
  <rect
     style="fill:#0277bd;stroke:#000000;stroke-width:0.499999"
     id="rect4650"
     width="158.25"
     height="105.33334"
     x="0.25"
     y="0.24999492"
     inkscape:export-filename="/home/francivaldo/Documentos/WEB_DIAL/imagens/unifor.png"
     inkscape:export-xdpi="96"
     inkscape:export-ydpi="96" />
  <g
     id="g4815"
     transform="translate(-1.2255769,3.7277927)"
     style="fill:#ffffff"
     inkscape:export-filename="/home/francivaldo/Documentos/WEB_DIAL/imagens/unifor.png"
     inkscape:export-xdpi="96"
     inkscape:export-ydpi="96">
    <path
       fill-rule="evenodd"
       clip-rule="evenodd"
       fill="#FFFFFF"
       d="M 9.5218738,38.730712 32.10405,24.337256 54.753321,38.745014 h -8.89385 c 5.142761,7.606347 3.388541,14.994367 -0.04154,19.67467 h 8.81677 L 32.118181,73.489696 9.6444816,58.406792 18.404159,58.395952 C 14.556009,53.04907 13.585405,46.082162 18.390131,38.745551 Z M 25.08004,58.856443 c 0.256951,-4.359157 2.943206,-7.644917 7.463638,-7.542151 3.725398,0.415396 6.170456,3.041711 6.560123,7.48648 1.44591,-4.470499 -0.809312,-9.269227 -6.884131,-9.606126 -6.046275,0.312358 -8.489908,4.537558 -7.13963,9.661797 z m 15.609551,-0.516814 c 3.47989,-6.140494 -2.161014,-13.719763 -8.057419,-13.330045 -6.772799,-0.628052 -13.087414,7.189551 -9.049427,13.3643 -1.50015,-6.916952 4.067958,-11.303251 9.210719,-10.862177 4.015149,0.346887 8.736841,3.783915 7.896127,10.827922 z m 2.497872,-1.493047 C 46.88003,49.113192 40.13578,39.418591 32.476593,39.926724 23.685514,39.108886 16.941263,49.70985 21.084873,56.816642 19.136534,48.749204 26.164828,42.448864 32.843425,43.019844 c 5.219835,0.455314 11.447384,4.677441 10.344038,13.826738 z m 2.139603,-0.747928 C 50.024492,44.746909 42.642212,33.667816 31.964171,33.824799 21.503088,34.214297 14.147927,44.736933 18.899592,56.060137 13.768252,34.124529 48.594285,29.8853 45.327066,56.097917 Z m -9.74455,-2.272304 -0.03021,6.43736 H 28.52115 v -6.410283 c -1.540114,1.103381 -2.35085,2.84901 -2.35085,4.875868 0,3.367118 2.580654,6.043443 5.967766,6.043443 3.388541,0 5.897834,-2.73912 5.897834,-6.107702 0.0015,-2.079613 -0.862126,-3.736821 -2.453625,-4.838686 z"
       id="path949"
       style="fill:#ffffff;fill-opacity:1;stroke-width:0.264583" />
    <path
       fill-rule="evenodd"
       clip-rule="evenodd"
       fill="#FFFFFF"
       d="m 57.850682,39.795523 h 4.917234 v 8.801064 c 0,1.293231 0.02859,2.216697 0.09705,2.790477 0.06425,0.560941 0.175544,1.029156 0.336847,1.40452 0.184122,0.459628 0.518109,0.815039 0.983447,1.060549 0.469611,0.236828 1.044825,0.36684 1.719964,0.36684 0.670856,0 1.238947,-0.130012 1.711401,-0.36684 0.459631,-0.245458 0.797891,-0.600921 0.989156,-1.060549 0.155584,-0.37709 0.271193,-0.844979 0.338303,-1.40452 0.0614,-0.572328 0.09565,-1.497246 0.09565,-2.790477 v -1.234634 -7.56643 h 4.904395 v 9.564747 c 0,1.984015 -0.117064,3.449868 -0.359666,4.389098 -0.239795,0.944882 -0.639458,1.749933 -1.210399,2.417912 -0.616617,0.726565 -1.467322,1.280328 -2.539265,1.642906 -1.07908,0.372775 -2.393672,0.550964 -3.929508,0.550964 -1.548681,0 -2.86042,-0.178558 -3.936646,-0.550964 C 60.893849,57.447661 60.04172,56.892382 59.415111,56.16728 58.855586,55.497849 58.458783,54.69425 58.21185,53.749368 57.969195,52.8116 57.849324,51.344285 57.849324,49.36027 v -1.876987 -7.68776 z M 76.399156,57.880106 V 39.795523 h 4.757372 l 6.828468,9.303535 c 0.131308,0.192586 0.349685,0.566655 0.653727,1.144708 0.296872,0.569518 0.626609,1.25465 0.992009,2.048263 -0.09705,-0.755095 -0.171282,-1.420212 -0.215519,-2.001169 -0.04585,-0.589481 -0.06851,-1.10759 -0.06851,-1.561504 v -8.932381 h 4.733111 v 18.084583 h -4.733111 l -6.829892,-9.336327 c -0.139886,-0.194206 -0.356862,-0.57098 -0.663719,-1.14476 -0.296872,-0.569518 -0.623754,-1.243211 -0.979165,-2.021133 0.09705,0.76082 0.168423,1.434514 0.214117,2.021133 0.04694,0.57238 0.06851,1.100529 0.06851,1.547265 v 8.93237 z m 20.389764,0 V 39.795523 h 4.9829 v 18.084583 z m 7.38656,0 V 39.795523 h 11.07627 v 3.96804 h -6.26893 v 3.131638 h 5.91781 v 3.88809 h -5.91781 v 7.098267 h -4.80734 z m 31.04354,-9.003743 c 0,1.304607 -0.24265,2.525003 -0.71653,3.65261 -0.47246,1.140445 -1.17329,2.158152 -2.08679,3.05454 -0.92778,0.896388 -1.97689,1.575806 -3.16302,2.061112 -1.18614,0.477971 -2.41937,0.717935 -3.69828,0.717935 -1.29175,0 -2.5307,-0.239533 -3.70399,-0.717935 -1.18898,-0.485527 -2.2281,-1.164724 -3.12305,-2.061112 -0.93063,-0.896388 -1.63575,-1.914095 -2.12247,-3.063117 -0.481,-1.136184 -0.72224,-2.353728 -0.72224,-3.64258 0,-1.294631 0.24119,-2.507902 0.72224,-3.65261 0.48671,-1.137636 1.19184,-2.158162 2.12247,-3.058812 0.89638,-0.886401 1.93407,-1.571534 3.12305,-2.053988 1.17186,-0.482286 2.41081,-0.717977 3.70399,-0.717977 1.2889,0 2.52785,0.236828 3.71397,0.717977 1.19186,0.482296 2.23524,1.167587 3.14733,2.053988 0.90495,0.890673 1.59435,1.90979 2.07966,3.058812 0.48099,1.137584 0.72366,2.356527 0.72366,3.651157 z m -9.66462,5.312617 c 1.37312,0 2.4993,-0.503871 3.39568,-1.505833 0.89638,-1.009193 1.336,-2.268106 1.336,-3.806784 0,-1.51441 -0.44819,-2.779047 -1.35313,-3.78964 -0.9078,-1.016254 -2.03541,-1.522986 -3.37712,-1.522986 -1.36027,0 -2.49502,0.50549 -3.38568,1.515872 -0.89496,1.000553 -1.33886,2.27522 -1.33886,3.796754 0,1.55298 0.43248,2.82047 1.31459,3.819623 0.87782,0.996301 2.0197,1.492994 3.40852,1.492994 z m 11.4688,3.691126 V 39.795523 h 5.15133 c 2.01256,0 3.42279,0.09545 4.21212,0.278366 0.79503,0.187198 1.47589,0.499555 2.05824,0.934905 0.65231,0.499555 1.15045,1.130469 1.50443,1.884112 0.34829,0.773606 0.51811,1.617175 0.51811,2.540704 0,1.397343 -0.33685,2.534979 -1.02626,3.414213 -0.68514,0.874972 -1.68856,1.458728 -3.00602,1.744218 l 4.92295,7.288065 h -5.5624 l -4.15502,-7.079661 v 7.079661 z m 4.61892,-9.534691 h 0.92064 c 1.05768,0 1.82844,-0.182883 2.32517,-0.54244 0.48957,-0.364145 0.72937,-0.933452 0.72937,-1.705659 0,-0.909227 -0.22409,-1.548718 -0.68656,-1.93551 -0.44959,-0.379795 -1.22037,-0.569529 -2.29946,-0.569529 h -0.9863 v 4.753138 z"
       id="path951"
       style="fill:#ffffff;fill-opacity:1;stroke-width:0.264583" />
    <path
       fill="#FFFFFF"
       d="m 91.673279,68.084291 c 0,-1.187551 0.178404,-2.183841 0.533808,-2.990303 0.265475,-0.593796 0.626608,-1.126207 1.084794,-1.598674 0.458173,-0.470962 0.960606,-0.820701 1.507286,-1.049057 0.726524,-0.306959 1.564379,-0.461249 2.51357,-0.461249 1.718534,0 3.093073,0.532464 4.122203,1.598674 1.03198,1.064812 1.54725,2.546366 1.54725,4.444769 0,1.88125 -0.51099,3.35428 -1.5344,4.417692 -1.02342,1.061948 -2.390823,1.594349 -4.103649,1.594349 -1.732808,0 -3.111636,-0.529759 -4.135048,-1.585825 -1.023413,-1.059097 -1.535836,-2.514973 -1.535836,-4.370544 z m 2.426505,-0.07988 c 0,1.320298 0.305449,2.320914 0.914935,3.001732 0.60948,0.68227 1.384535,1.021979 2.322305,1.021979 0.939201,0 1.708543,-0.336636 2.310886,-1.013402 0.60092,-0.676556 0.90209,-1.690011 0.90209,-3.041712 0,-1.337399 -0.29261,-2.332301 -0.877824,-2.990292 -0.585215,-0.657992 -1.364554,-0.984862 -2.333727,-0.984862 -0.970597,0 -1.75279,0.331237 -2.346572,0.996301 -0.595205,0.666569 -0.892093,1.669984 -0.892093,3.010256 z"
       id="path953"
       style="fill:#ffffff;fill-opacity:1;stroke-width:0.264583" />
    <path
       fill="#FFFFFF"
       d="M 104.84206,73.840781 V 62.183582 h 2.28948 l 4.77164,7.78481 v -7.78481 h 2.1867 v 11.657199 h -2.36226 l -4.69886,-7.602085 v 7.602085 z"
       id="path955"
       style="fill:#ffffff;fill-opacity:1;stroke-width:0.264583" />
    <path
       fill="#FFFFFF"
       d="m 116.64342,73.840781 v -11.563 h 2.35229 v 9.599002 h 5.85357 v 1.963998 z"
       id="path957"
       style="fill:#ffffff;fill-opacity:1;stroke-width:0.264583" />
    <path
       fill="#FFFFFF"
       d="M 126.45649,73.840781 V 62.183582 h 2.35229 v 11.657199 z"
       id="path959"
       style="fill:#ffffff;fill-opacity:1;stroke-width:0.264583" />
    <path
       fill="#FFFFFF"
       d="M 131.07541,73.840781 V 62.183582 h 2.28948 l 4.77165,7.78481 v -7.78481 h 2.1867 v 11.657199 h -2.36084 l -4.69886,-7.602085 v 7.602085 z"
       id="path961"
       style="fill:#ffffff;fill-opacity:1;stroke-width:0.264583" />
    <path
       fill="#FFFFFF"
       d="M 142.81256,73.840781 V 62.183582 h 8.64406 v 1.972639 h -6.28894 v 2.584935 h 5.85217 v 1.964009 h -5.85217 v 3.173017 h 6.5116 v 1.964062 h -8.86672 z"
       id="path963"
       style="fill:#ffffff;fill-opacity:1;stroke-width:0.264583" />
  </g>
</svg>
